<svg width="300" height="108"
	 xmlns="http://www.w3.org/2000/svg">
<g id="Groupe_18" transform="translate(-203.287 -357.502)">
	<path id="Tracé_18" fill="#FFFFFF" d="M249.45,424.83c0.75,0.65,0.83,1.78,0.18,2.53c-0.03,0.03-0.05,0.06-0.08,0.09
		c-5.04,5.33-12.12,8.27-19.45,8.06c-13.68-0.03-24.76-11.11-24.8-24.79c-0.52-13.29,9.83-24.48,23.12-25
		c0.63-0.02,1.25-0.02,1.88,0c7.25,0.03,14.18,2.97,19.25,8.15c0.6,0.8,0.51,1.92-0.2,2.62l-4.14,3.83
		c-0.69,0.68-1.78,0.73-2.52,0.11c-3.3-3.32-7.82-5.14-12.5-5.04c-7.78-0.42-14.43,5.54-14.85,13.32c-0.04,0.67-0.03,1.34,0.03,2
		c-0.8,7.54,4.67,14.31,12.22,15.1c0.9,0.09,1.8,0.1,2.7,0.02c4.7-0.03,9.22-1.79,12.7-4.94c0.72-0.58,1.75-0.53,2.42,0.1
		L249.45,424.83z"/>
	<path id="Tracé_19" fill="#FFFFFF" d="M308.81,410.62c-0.02,13.73-11.17,24.84-24.9,24.81c-13.73-0.02-24.84-11.17-24.81-24.9
		c0.02-13.69,11.12-24.79,24.81-24.81c13.71-0.04,24.86,11.04,24.9,24.74C308.81,410.52,308.81,410.57,308.81,410.62z M269,410.62
		c-0.03,8.27,6.65,14.99,14.92,15.02c8.27,0.03,14.99-6.65,15.02-14.92s-6.65-14.99-14.92-15.02c-0.03,0-0.07,0-0.1,0
		C275.7,395.76,269.06,402.41,269,410.62z"/>
	<path id="Tracé_20" fill="#FFFFFF" d="M393.27,433.7c0,1-0.8,1.81-1.8,1.81c-0.01,0-0.01,0-0.02,0h-5.65c-1,0-1.81-0.8-1.81-1.8
		c0-0.01,0-0.01,0-0.02l-0.31-26.82c0.31-6.21-4.47-11.49-10.67-11.81c-6.21-0.31-11.49,4.47-11.81,10.67
		c-0.02,0.38-0.02,0.76,0,1.13l-0.3,26.82c0,1-0.81,1.81-1.81,1.81c0,0-0.01,0-0.01,0h-5.64c-1,0-1.81-0.8-1.81-1.8
		c0-0.01,0-0.01,0-0.02l-0.41-26.82c0.31-6.21-4.47-11.49-10.67-11.81c-6.21-0.31-11.49,4.47-11.81,10.67
		c-0.02,0.38-0.02,0.76,0,1.13l-0.31,26.82c0,1-0.8,1.81-1.8,1.81c-0.01,0-0.01,0-0.02,0h-5.65c-1,0-1.81-0.8-1.81-1.8
		c0-0.01,0-0.01,0-0.02l-0.3-27.92l0.1-17.34c0-1,0.8-1.81,1.8-1.81c0.01,0,0.01,0,0.02,0h6.05c0.96,0.02,1.74,0.76,1.81,1.72v2.62
		c6.05-8.26,21.47-6.35,28.11,2.32c3.65-4.93,9.49-7.76,15.63-7.56c11.06-0.64,20.54,7.8,21.19,18.85c0.05,0.78,0.05,1.56,0,2.33
		L393.27,433.7z"/>
	<path id="Tracé_21" fill="#FFFFFF" d="M404.84,409.4c0.71-13.69,12.39-24.2,26.07-23.49c13.69,0.71,24.2,12.39,23.49,26.07
		c-0.69,13.18-11.57,23.52-24.77,23.52c-5.5-0.11-10.72-2.48-14.42-6.55c-0.06-0.13-0.22-0.19-0.35-0.13
		c-0.09,0.04-0.15,0.13-0.15,0.23l-0.2,30.34c-0.01,1.11-0.91,2-2.01,2.02h-5.35c-1.12,0-2.03-0.9-2.04-2.02
		C405.12,459.4,404.26,422.61,404.84,409.4z M427.73,425.32c8.13,1.06,15.58-4.68,16.63-12.81c1.06-8.13-4.68-15.58-12.81-16.63
		c-8.13-1.06-15.58,4.68-16.63,12.81c-0.17,1.27-0.17,2.56,0,3.83C415.79,419.2,421.05,424.46,427.73,425.32L427.73,425.32z"/>
	<path id="Tracé_22" fill="#FFFFFF" d="M478.21,375.03c-0.07,3.46-2.89,6.24-6.35,6.25c-3.48,0-6.3-2.82-6.3-6.3
		c0-3.48,2.82-6.3,6.3-6.3C475.36,368.7,478.19,371.53,478.21,375.03z M474.78,385.71h-5.84c-1,0-1.81,0.8-1.82,1.8
		c0,0,0,0.01,0,0.01l-0.3,16.13v13.91l0.3,16.23c0.04,0.97,0.85,1.73,1.82,1.72h5.84c0.94,0.01,1.71-0.74,1.72-1.68
		c0-0.01,0-0.02,0-0.04l0.41-16.23v-13.91l-0.41-16.13c0.06-0.95-0.67-1.77-1.62-1.83c-0.03,0-0.06,0-0.1,0L474.78,385.71z"/>
	<path id="Tracé_23" fill="#FFFFFF" d="M500.99,361.52l0.3,16.13v39.93l-0.3,16.23c-0.03,0.94-0.78,1.69-1.72,1.72h-5.95
		c-0.94-0.03-1.69-0.78-1.72-1.72l-0.3-16.23v-39.93l0.3-16.13c-0.01-0.94,0.74-1.71,1.68-1.72c0.01,0,0.02,0,0.03,0h5.95
		c0.94-0.01,1.71,0.74,1.72,1.68C500.99,361.5,500.99,361.51,500.99,361.52z"/>
</g>
</svg>
