<svg xmlns="http://www.w3.org/2000/svg" width="512" height="512" viewBox="0 0 512 512" version="1.1">
	<path d="M 0 256.002 L 0 512.004 256.250 511.752 L 512.500 511.500 512.752 255.750 L 513.004 0 256.502 0 L 0 0 0 256.002 M 0.492 256.500 C 0.492 397.300, 0.608 454.751, 0.750 384.170 C 0.892 313.588, 0.892 198.388, 0.750 128.170 C 0.608 57.951, 0.492 115.700, 0.492 256.500 M 234.640 145.534 C 212.627 149.694, 195.229 158.820, 178.749 174.851 C 164.003 189.196, 154.556 205.175, 149.225 224.794 C 146.791 233.750, 146.589 236.007, 146.610 254 C 146.632 271.781, 146.861 274.344, 149.215 283.074 C 156.166 308.860, 170.051 329.847, 190.210 345.037 C 234.917 378.725, 299.726 374.689, 340.502 335.680 C 346.078 330.345, 347 328.966, 347 325.963 C 347 322.858, 345.899 321.380, 337.250 312.871 C 321.578 297.455, 320.813 297.246, 310.437 305.514 C 301.955 312.274, 290.130 318.243, 279.500 321.133 C 268.329 324.169, 243.236 324.439, 235 321.612 C 214.096 314.435, 199.653 299.940, 193.536 280 C 191.311 272.747, 190.402 251.731, 191.898 242.159 C 195.152 221.353, 206.971 204.441, 224.704 195.215 C 235.314 189.695, 242.838 188.033, 257.303 188.015 C 279.251 187.987, 295.162 193.860, 311.535 208.030 C 319.066 214.549, 320.768 214.053, 334.441 201.362 C 347.107 189.605, 348.455 187.176, 345.308 181.788 C 344.286 180.038, 339.648 175.529, 335 171.766 C 320.005 159.628, 305.459 152.353, 286.085 147.302 C 273.748 144.086, 247.141 143.171, 234.640 145.534" stroke="none" fill="black" fill-rule="evenodd"/>
</svg>